<?xml version="1.0" encoding="UTF-8" standalone="no"?>
<svg
   xmlns:dc="http://purl.org/dc/elements/1.1/"
   xmlns:cc="http://creativecommons.org/ns#"
   xmlns:rdf="http://www.w3.org/1999/02/22-rdf-syntax-ns#"
   xmlns:svg="http://www.w3.org/2000/svg"
   xmlns="http://www.w3.org/2000/svg"
   xmlns:sodipodi="http://sodipodi.sourceforge.net/DTD/sodipodi-0.dtd"
   xmlns:inkscape="http://www.inkscape.org/namespaces/inkscape"
   height="511pt"
   viewBox="0 -45 511.998 511"
   width="511pt"
   version="1.1"
   id="svg5156"
   sodipodi:docname="heartbeat.svg"
   inkscape:version="0.92.4 (5da689c313, 2019-01-14)">
  <metadata
     id="metadata5162">
    <rdf:RDF>
      <cc:Work
         rdf:about="">
        <dc:format>image/svg+xml</dc:format>
        <dc:type
           rdf:resource="http://purl.org/dc/dcmitype/StillImage" />
      </cc:Work>
    </rdf:RDF>
  </metadata>
  <defs
     id="defs5160" />
  <sodipodi:namedview
     pagecolor="#ffffff"
     bordercolor="#666666"
     borderopacity="1"
     objecttolerance="10"
     gridtolerance="10"
     guidetolerance="10"
     inkscape:pageopacity="0"
     inkscape:pageshadow="2"
     inkscape:window-width="1920"
     inkscape:window-height="1001"
     id="namedview5158"
     showgrid="false"
     inkscape:zoom="0.97970959"
     inkscape:cx="142.79344"
     inkscape:cy="310.70034"
     inkscape:window-x="2391"
     inkscape:window-y="-9"
     inkscape:window-maximized="1"
     inkscape:current-layer="svg5156" />
  <path
     d="m474.394531 122.03125c1.542969-65.394531-50.390625-120.8125-115.800781-121.523438-43.792969-.476562-82.101562 23.097657-102.597656 58.316407-20.5-35.21875-58.804688-58.7968752-102.597656-58.316407-65.410157.710938-117.34375 56.128907-115.800782 121.523438 3.453125 146.128906 178.226563 273.230469 212.574219 296.820312 3.511719 2.414063 8.136719 2.414063 11.648437 0 34.347657-23.589843 209.121094-150.691406 212.574219-296.820312zm0 0"
     id="path5150"
     fill="#f55"
     style="stroke:none" />
  <path
     d="m254.546875 332.152344c-6.351563 0-11.808594-4.519532-12.988281-10.769532l-32.273438-171.433593-34.339844 81.609375c-2 4.753906-6.578124 7.90625-11.730468 8.082031-5.160156.175781-9.9375-2.664063-12.253906-7.269531l-9.179688-18.246094h-128.566406c-7.296875 0-13.214844-5.917969-13.214844-13.214844 0-7.300781 5.917969-13.214844 13.214844-13.214844h136.710937c4.96875 0 9.515625 2.785157 11.769531 7.207032l40.269532-95.691406c2.261718-5.378907 7.785156-8.636719 13.578125-8.015626 5.800781.617188 10.507812 4.960938 11.589843 10.695313l26.609376 141.363281 11.011718-66.144531c1.058594-6.375 6.570313-11.046875 13.03125-11.046875h43.128906c4.46875 0 8.636719 2.257812 11.074219 6l20.25 31.082031 8.734375-10.625c2.511719-3.054687 6.257813-4.824219 10.210938-4.824219h127.601562c7.296875 0 13.210938 5.917969 13.210938 13.214844s-5.914063 13.214844-13.210938 13.214844h-121.355468l-16.210938 19.722656c-2.671875 3.25-6.738281 5.035156-10.9375 4.804688-4.207031-.230469-8.046875-2.453125-10.34375-5.980469l-26.179688-40.179687h-24.773437l-21.402344 128.613281c-1.050781 6.320312-6.488281 10.976562-12.894531 11.042969-.046875 0-.097656.003906-.140625.003906zm0 0"
     id="path5154"
     fill="#60daff"
     style="stroke:none" />
</svg>
