<?xml version="1.0" encoding="UTF-8" standalone="no"?>
<svg
   xmlns:dc="http://purl.org/dc/elements/1.1/"
   xmlns:cc="http://creativecommons.org/ns#"
   xmlns:rdf="http://www.w3.org/1999/02/22-rdf-syntax-ns#"
   xmlns:svg="http://www.w3.org/2000/svg"
   xmlns="http://www.w3.org/2000/svg"
   xmlns:sodipodi="http://sodipodi.sourceforge.net/DTD/sodipodi-0.dtd"
   xmlns:inkscape="http://www.inkscape.org/namespaces/inkscape"
   height="511pt"
   viewBox="0 -45 511.998 511"
   width="511pt"
   version="1.1"
   id="svg5156"
   sodipodi:docname="green_earth_inkscape.svg"
   inkscape:version="0.92.4 (5da689c313, 2019-01-14)">
  <metadata
     id="metadata5162">
    <rdf:RDF>
      <cc:Work
         rdf:about="">
        <dc:format>image/svg+xml</dc:format>
        <dc:type
           rdf:resource="http://purl.org/dc/dcmitype/StillImage" />
        <dc:title></dc:title>
      </cc:Work>
    </rdf:RDF>
  </metadata>
  <defs
     id="defs5160" />
  <sodipodi:namedview
     pagecolor="#ffffff"
     bordercolor="#666666"
     borderopacity="1"
     objecttolerance="10"
     gridtolerance="10"
     guidetolerance="10"
     inkscape:pageopacity="0"
     inkscape:pageshadow="2"
     inkscape:window-width="1920"
     inkscape:window-height="1001"
     id="namedview5158"
     showgrid="false"
     inkscape:zoom="0.69275929"
     inkscape:cx="321.86302"
     inkscape:cy="530.12048"
     inkscape:window-x="2391"
     inkscape:window-y="-9"
     inkscape:window-maximized="1"
     inkscape:current-layer="layer2" />
  <g
     inkscape:groupmode="layer"
     id="layer3"
     inkscape:label="Layer 2">
    <g
       id="g4545"
       transform="matrix(3.1666641,0,0,3.1666641,-75.795114,-408.98702)">
      <g
         id="g1510"
         transform="matrix(0.41405542,0,0,0.41405542,63.329285,88.684806)">
        <rect
           style="fill:#60ed5f;fill-opacity:1;stroke:#000000;stroke-width:1;stroke-miterlimit:4;stroke-dasharray:none;stroke-opacity:1"
           id="rect4520"
           width="10.961308"
           height="66.523811"
           x="100.16368"
           y="181.33929" />
        <path
           style="fill:#60ed5f;fill-opacity:1;stroke:#000000;stroke-width:1;stroke-linecap:butt;stroke-linejoin:miter;stroke-miterlimit:4;stroke-dasharray:none;stroke-opacity:1"
           d="m 78.241072,158.28273 c 0,0 1.889881,19.65477 6.803572,25.70239 4.913691,6.04762 11.908204,14.86369 18.520826,8.69345 7.28128,-6.79416 -0.53014,-20.1849 -4.913684,-24.56845 -7.9375,-7.9375 -20.410714,-9.82739 -20.410714,-9.82739 z"
           id="path4522"
           inkscape:connector-curvature="0"
           sodipodi:nodetypes="csssc" />
        <path
           sodipodi:nodetypes="csssc"
           inkscape:connector-curvature="0"
           id="path4524"
           d="m 129.60196,159.03869 c 0,0 -1.88988,19.65477 -6.80357,25.70239 -4.91369,6.04762 -11.9082,14.86369 -18.52083,8.69345 -7.28128,-6.79416 0.53014,-20.1849 4.91369,-24.56845 7.9375,-7.9375 20.41071,-9.82739 20.41071,-9.82739 z"
           style="fill:#60ed5f;fill-opacity:1;stroke:#000000;stroke-width:1;stroke-linecap:butt;stroke-linejoin:miter;stroke-miterlimit:4;stroke-dasharray:none;stroke-opacity:1" />
        <path
           style="fill:#60ed5f;fill-opacity:1;stroke:#000000;stroke-width:1;stroke-linecap:butt;stroke-linejoin:miter;stroke-miterlimit:4;stroke-dasharray:none;stroke-opacity:1"
           d="m 131.11386,173.02381 c 0,0 -1.88988,19.65477 -6.80357,25.70239 -4.91369,6.04762 -11.9082,14.86369 -18.52083,8.69345 -7.281275,-6.79416 0.53014,-20.1849 4.91369,-24.56845 7.9375,-7.9375 20.41071,-9.82739 20.41071,-9.82739 z"
           id="path4526"
           inkscape:connector-curvature="0"
           sodipodi:nodetypes="csssc" />
        <path
           sodipodi:nodetypes="csssc"
           inkscape:connector-curvature="0"
           id="path4530"
           d="m 77.863096,172.26785 c 0,0 1.889881,19.65477 6.803572,25.70239 4.913691,6.04762 11.908204,14.86369 18.520822,8.69345 7.28128,-6.79416 -0.53014,-20.1849 -4.91368,-24.56845 -7.9375,-7.9375 -20.410714,-9.82739 -20.410714,-9.82739 z"
           style="fill:#60ed5f;fill-opacity:1;stroke:#000000;stroke-width:1;stroke-linecap:butt;stroke-linejoin:miter;stroke-miterlimit:4;stroke-dasharray:none;stroke-opacity:1" />
        <path
           sodipodi:nodetypes="csssc"
           inkscape:connector-curvature="0"
           id="path4534"
           d="m 79.375001,183.60714 c 0,0 1.889881,19.65477 6.803572,25.70239 4.913691,6.04762 11.908204,14.86369 18.520817,8.69345 7.28128,-6.79416 -0.53014,-20.1849 -4.913676,-24.56845 -7.937499,-7.9375 -20.410713,-9.82739 -20.410713,-9.82739 z"
           style="fill:#60ed5f;fill-opacity:1;stroke:#000000;stroke-width:1;stroke-linecap:butt;stroke-linejoin:miter;stroke-miterlimit:4;stroke-dasharray:none;stroke-opacity:1" />
        <path
           sodipodi:nodetypes="csssc"
           inkscape:connector-curvature="0"
           id="path4536"
           d="m 129.60196,183.98512 c 0,0 -1.88988,19.65477 -6.80357,25.70239 -4.91369,6.04762 -11.9082,14.86369 -18.52083,8.69345 -7.28128,-6.79416 0.53014,-20.1849 4.91369,-24.56845 7.9375,-7.9375 20.41071,-9.82739 20.41071,-9.82739 z"
           style="fill:#60ed5f;fill-opacity:1;stroke:#000000;stroke-width:1;stroke-linecap:butt;stroke-linejoin:miter;stroke-miterlimit:4;stroke-dasharray:none;stroke-opacity:1" />
      </g>
    </g>
  </g>
  <g
     inkscape:groupmode="layer"
     id="layer2"
     inkscape:label="Layer 1">
    <circle
       id="path10"
       cx="258.74496"
       cy="266.39368"
       r="199.2878"
       style="fill:#0097ff;fill-opacity:1;stroke:#000000;stroke-width:3.16666436;stroke-miterlimit:4;stroke-dasharray:none;stroke-opacity:1" />
    <path
       style="fill:#60ed5f;fill-opacity:1;stroke:none;stroke-width:0.91265339px;stroke-linecap:butt;stroke-linejoin:miter;stroke-opacity:1"
       d="m 246.28696,204.88895 -52.17581,27.709 10.30634,58.71666 67.63536,3.29867 28.34242,95.66197 39.93703,-118.09302 22.5451,-19.13244 -31.56313,-14.51422 -39.29291,-41.56347 z"
       id="path4551"
       inkscape:connector-curvature="0" />
    <path
       style="fill:#60ed5f;fill-opacity:1;stroke:none;stroke-width:0.83784646px;stroke-linecap:butt;stroke-linejoin:miter;stroke-opacity:1"
       d="m 218.04962,183.80589 9.57539,20.34773 37.10464,-23.34002 17.95384,7.78002 -6.5831,-23.34 34.11234,20.94612 5.38619,-19.74921 10.17381,53.26309 37.10467,33.33617 31.71845,-45.90386 -34.7108,-37.10463 89.17083,45.48308 c 0,0 -11.96923,-78.99696 -98.14774,-122.684677 C 264.72965,49.151992 312.60658,104.2105 312.60658,104.2105 l -33.51386,-2.39387 -5.38614,21.54462 -8.97693,28.12771 -23.93849,-8.37846 -32.31693,25.73386 z"
       id="path4553"
       inkscape:connector-curvature="0" />
    <path
       style="fill:#60ed5f;fill-opacity:1;stroke:none;stroke-width:0.83784646px;stroke-linecap:butt;stroke-linejoin:miter;stroke-opacity:1"
       d="m 219.24654,115.58126 -2.99232,19.15078 -6.58307,10.17387 8.37847,1.79537 22.74154,-3.59078 -11.37077,-13.16614 -0.59846,-17.3554 z"
       id="path4563"
       inkscape:connector-curvature="0" />
    <path
       style="fill:#60ed5f;fill-opacity:1;stroke:none;stroke-width:0.83784646px;stroke-linecap:butt;stroke-linejoin:miter;stroke-opacity:1"
       d="m 66.638783,234.07669 45.483097,72.41388 6.58308,47.87695 2.39385,51.4677 c 0,0 -78.398508,-67.62617 -54.460027,-171.75853 z"
       id="path4565"
       inkscape:connector-curvature="0" />
    <path
       style="fill:#60ed5f;fill-opacity:1;stroke:none;stroke-width:0.83784646px;stroke-linecap:butt;stroke-linejoin:miter;stroke-opacity:1"
       d="m 70.229551,207.14593 56.255409,-26.33233 20.94617,-43.08925 1.19692,-34.71078 c 0,0 -48.47541,22.74156 -78.398499,104.13236 z"
       id="path4567"
       inkscape:connector-curvature="0" />
  </g>
</svg>
