<?xml version="1.0" encoding="UTF-8" standalone="no"?>
<svg
   xmlns:dc="http://purl.org/dc/elements/1.1/"
   xmlns:cc="http://creativecommons.org/ns#"
   xmlns:rdf="http://www.w3.org/1999/02/22-rdf-syntax-ns#"
   xmlns:svg="http://www.w3.org/2000/svg"
   xmlns="http://www.w3.org/2000/svg"
   id="svg8"
   version="1.1"
   viewBox="0 0 210 297"
   height="297mm"
   width="210mm">
  <defs
     id="defs2" />
  <metadata
     id="metadata5">
    <rdf:RDF>
      <cc:Work
         rdf:about="">
        <dc:format>image/svg+xml</dc:format>
        <dc:type
           rdf:resource="http://purl.org/dc/dcmitype/StillImage" />
        <dc:title></dc:title>
      </cc:Work>
    </rdf:RDF>
  </metadata>
  <g
     id="layer1">
    <g
       transform="translate(0.75595238,-3.7797619)"
       id="g4545">
      <rect
         style="fill:#60ed5f;fill-opacity:1;stroke:#000000;stroke-width:1;stroke-miterlimit:4;stroke-dasharray:none;stroke-opacity:1"
         id="rect4520"
         width="10.961308"
         height="66.523811"
         x="100.16368"
         y="181.33929" />
      <path
         style="fill:#60ed5f;fill-opacity:1;stroke:#000000;stroke-width:1;stroke-linecap:butt;stroke-linejoin:miter;stroke-miterlimit:4;stroke-dasharray:none;stroke-opacity:1"
         d="m 78.241072,158.28273 c 0,0 1.889881,19.65477 6.803572,25.70239 4.913691,6.04762 11.908204,14.86369 18.520826,8.69345 7.28128,-6.79416 -0.53014,-20.1849 -4.913684,-24.56845 -7.9375,-7.9375 -20.410714,-9.82739 -20.410714,-9.82739 z"
         id="path4522" />
      <path
         id="path4524"
         d="m 129.60196,159.03869 c 0,0 -1.88988,19.65477 -6.80357,25.70239 -4.91369,6.04762 -11.9082,14.86369 -18.52083,8.69345 -7.28128,-6.79416 0.53014,-20.1849 4.91369,-24.56845 7.9375,-7.9375 20.41071,-9.82739 20.41071,-9.82739 z"
         style="fill:#60ed5f;fill-opacity:1;stroke:#000000;stroke-width:1;stroke-linecap:butt;stroke-linejoin:miter;stroke-miterlimit:4;stroke-dasharray:none;stroke-opacity:1" />
      <path
         style="fill:#60ed5f;fill-opacity:1;stroke:#000000;stroke-width:1;stroke-linecap:butt;stroke-linejoin:miter;stroke-miterlimit:4;stroke-dasharray:none;stroke-opacity:1"
         d="m 131.11386,173.02381 c 0,0 -1.88988,19.65477 -6.80357,25.70239 -4.91369,6.04762 -11.9082,14.86369 -18.52083,8.69345 -7.281275,-6.79416 0.53014,-20.1849 4.91369,-24.56845 7.9375,-7.9375 20.41071,-9.82739 20.41071,-9.82739 z"
         id="path4526" />
      <path
         id="path4530"
         d="m 77.863096,172.26785 c 0,0 1.889881,19.65477 6.803572,25.70239 4.913691,6.04762 11.908204,14.86369 18.520822,8.69345 7.28128,-6.79416 -0.53014,-20.1849 -4.91368,-24.56845 -7.9375,-7.9375 -20.410714,-9.82739 -20.410714,-9.82739 z"
         style="fill:#60ed5f;fill-opacity:1;stroke:#000000;stroke-width:1;stroke-linecap:butt;stroke-linejoin:miter;stroke-miterlimit:4;stroke-dasharray:none;stroke-opacity:1" />
      <path
         id="path4534"
         d="m 79.375001,183.60714 c 0,0 1.889881,19.65477 6.803572,25.70239 4.913691,6.04762 11.908204,14.86369 18.520817,8.69345 7.28128,-6.79416 -0.53014,-20.1849 -4.913676,-24.56845 -7.937499,-7.9375 -20.410713,-9.82739 -20.410713,-9.82739 z"
         style="fill:#60ed5f;fill-opacity:1;stroke:#000000;stroke-width:1;stroke-linecap:butt;stroke-linejoin:miter;stroke-miterlimit:4;stroke-dasharray:none;stroke-opacity:1" />
      <path
         id="path4536"
         d="m 129.60196,183.98512 c 0,0 -1.88988,19.65477 -6.80357,25.70239 -4.91369,6.04762 -11.9082,14.86369 -18.52083,8.69345 -7.28128,-6.79416 0.53014,-20.1849 4.91369,-24.56845 7.9375,-7.9375 20.41071,-9.82739 20.41071,-9.82739 z"
         style="fill:#60ed5f;fill-opacity:1;stroke:#000000;stroke-width:1;stroke-linecap:butt;stroke-linejoin:miter;stroke-miterlimit:4;stroke-dasharray:none;stroke-opacity:1" />
    </g>
  </g>
  <g
     id="layer2">
    <circle
       style="fill:#0097ff;fill-opacity:1;stroke-width:1;stroke:#000000;stroke-opacity:1;stroke-miterlimit:4;stroke-dasharray:none"
       r="62.933037"
       cy="209.4985"
       cx="106.40029"
       id="path10" />
    <path
       id="path4551"
       d="m 102.46617,190.07596 -16.476587,8.75022 3.254634,18.54212 21.358553,1.04168 8.95025,30.20907 12.6117,-37.29256 7.11951,-6.04183 -9.96731,-4.58344 -12.4083,-13.12532 z"
       style="fill:#60ed5f;fill-opacity:1;stroke:none;stroke-width:0.28820655px;stroke-linecap:butt;stroke-linejoin:miter;stroke-opacity:1" />
    <path
       id="path4553"
       d="m 93.549106,183.41815 3.023809,6.4256 11.717265,-7.37054 5.66964,2.45685 -2.07888,-7.37053 10.77233,6.61457 1.7009,-6.2366 3.21279,16.81994 11.71727,10.52722 10.01636,-14.49597 -10.96131,-11.71726 28.15923,14.36309 c 0,0 -3.77976,-24.94643 -30.99405,-38.74256 -27.21428,-13.79613 -12.09524,3.59078 -12.09524,3.59078 l -10.58333,-0.75596 -1.70089,6.80357 -2.83482,8.88244 -7.55953,-2.64583 -10.205353,8.12649 z"
       style="fill:#60ed5f;stroke:none;stroke-width:0.26458332px;stroke-linecap:butt;stroke-linejoin:miter;stroke-opacity:1;fill-opacity:1" />
    <path
       id="path4563"
       d="m 93.927082,161.87351 -0.944941,6.04762 -2.078868,3.2128 2.645833,0.56696 7.181544,-1.13393 -3.59077,-4.15773 -0.188989,-5.48066 z"
       style="fill:#60ed5f;stroke:none;stroke-width:0.26458332px;stroke-linecap:butt;stroke-linejoin:miter;stroke-opacity:1;fill-opacity:1" />
    <path
       id="path4565"
       d="m 45.735118,199.29315 14.363096,22.86756 2.078869,15.11905 0.755951,16.25297 c 0,0 -24.75744,-21.35565 -17.197916,-54.23958 z"
       style="fill:#60ed5f;stroke:none;stroke-width:0.26458332px;stroke-linecap:butt;stroke-linejoin:miter;stroke-opacity:1;fill-opacity:1" />
    <path
       id="path4567"
       d="m 46.869048,190.78869 17.764879,-8.31548 6.614583,-13.60714 0.377978,-10.96131 c 0,0 -15.308037,7.18155 -24.75744,32.88393 z"
       style="fill:#60ed5f;stroke:none;stroke-width:0.26458332px;stroke-linecap:butt;stroke-linejoin:miter;stroke-opacity:1;fill-opacity:1" />
  </g>
</svg>
