<svg id="piggy-bank" class="cartoon-animation" viewBox="-15 0 532 512" width="100%" xmlns="http://www.w3.org/2000/svg">
  <g id="pig">
    <path style="fill:#F1543F;" d="M485.616,269.584v10.449c0,6.269-4.18,10.449-10.449,10.449h-37.616v15.673h42.841   c11.494,0,20.898-9.404,20.898-20.898v-15.673c0-4.18-3.135-8.359-8.359-8.359l0,0   C488.751,261.224,485.616,264.359,485.616,269.584z" id="path5785"/>
    <path style="fill:#F1543F;" d="M206.629,463.935c-2.09,20.898-19.853,37.616-41.796,37.616h-1.045   c-22.988,0-41.796-18.808-41.796-41.796v-24.033C147.069,449.306,176.327,458.71,206.629,463.935z" id="path5787"/>
    <path style="fill:#40596B;" d="M71.837,199.576c26.122-14.629,54.335-24.033,80.457-27.167l-57.469-57.469  c-17.763,17.763-26.122,39.706-26.122,62.694C69.747,183.902,70.792,192.261,71.837,199.576z" id="path5791"/>
    <path style="fill:#F1543F;" d="M11.233,254.955c-14.629,14.629-14.629,71.053,0,85.682c7.314,7.314,41.796,0,41.796,0v-85.682   C51.984,254.955,18.547,247.641,11.233,254.955z" id="path5793"/>
    <path style="fill:#F1543F;" d="M374.857,435.722v24.033c0,22.988-18.808,41.796-41.796,41.796h-1.045   c-21.943,0-39.706-16.718-41.796-37.616C321.567,458.71,349.78,449.306,374.857,435.722z" id="path5795"/>
    <ellipse style="fill:#FF7058;" cx="248.424" cy="297.796" rx="219.429" ry="169.273" id="ellipse5799"/>
    <circle style="fill:#40596B;" cx="95.869" cy="250.776" r="12.539" id="circle5801"/>
    <path style="fill:#F1543F;" d="M317.388,171.363H180.506c-4.18,0-8.359,3.135-8.359,8.359l0,0c0,4.18,3.135,8.359,8.359,8.359  h136.882c4.18,0,7.314-3.135,7.314-8.359l0,0C324.702,175.543,321.567,171.363,317.388,171.363z" id="path5803"/>
  </g>

  <g id="coin">
    <circle style="fill:#FFD15C;" cx="248.424" cy="89.861" r="89.861" id="circle5805"/>
    <circle style="fill:#F8B64C;" cx="248.424" cy="89.861" r="67.918" id="circle5807"/>
    <path style="fill:#ffd15c;fill-opacity:1;stroke:none;stroke-width:1.100793px;stroke-linecap:butt;stroke-linejoin:miter;stroke-opacity:1" d="m 270.19825,56.208637 c 1.08766,2.952237 -0.47671,-6.118427 -17.98967,-2.89489 -18.85709,3.470947 -8.41457,29.520382 -11.57955,31.430219 l 25.22687,-0.413556 10e-6,13.026998 h -26.05399 l -7.65078,24.192992 h 40.32166 v 14.0609 l -54.38254,0.20678 -0.62034,-13.23378 8.89144,-25.226892 -11.99311,-0.206777 -0.41355,-12.613443 13.85411,0.206777 0.20678,-20.677774 c -0.001,-28.269697 20.91277,-30.922729 44.04365,-22.538774 z" id="path5862"/>
  </g>
</svg>
